<svg  viewBox="0 0 40 40" fill="none" xmlns="http://www.w3.org/2000/svg">
<path d="M20.625 12.625V26.125C20.625 26.7812 20.1094 27.25 19.5 27.25C18.8438 27.25 18.375 26.7812 18.375 26.125V12.625C18.375 12.0156 18.8438 11.5 19.5 11.5C20.1094 11.5 20.625 12.0156 20.625 12.625ZM19.5 32.5C18.6562 32.5 18 31.8438 18 31C18 30.2031 18.6562 29.5 19.5 29.5C20.2969 29.5 21 30.2031 21 31C21 31.8438 20.2969 32.5 19.5 32.5Z" fill="#11152A"/>
<path d="M18.5202 2.41879C19.1927 1.19374 20.8073 1.19373 21.4798 2.4188L38.2479 32.9643C39.0029 34.3396 37.9862 35.8333 36.7682 35.8333H3.23184C2.01379 35.8333 0.997062 34.3396 1.75206 32.9642L18.5202 2.41879Z" stroke="#F6CF02" stroke-width="3"/>
</svg>
