<svg  viewBox="0 0 41 40" fill="none" xmlns="http://www.w3.org/2000/svg">
<path d="M21.625 10.625V24.125C21.625 24.7812 21.1094 25.25 20.5 25.25C19.8438 25.25 19.375 24.7812 19.375 24.125V10.625C19.375 10.0156 19.8438 9.5 20.5 9.5C21.1094 9.5 21.625 10.0156 21.625 10.625ZM20.5 30.5C19.6562 30.5 19 29.8438 19 29C19 28.2031 19.6562 27.5 20.5 27.5C21.2969 27.5 22 28.2031 22 29C22 29.8438 21.2969 30.5 20.5 30.5Z" fill="#11152A"/>
<mask id="path-2-inside-1_602_2353" fill="white">
<rect width="40" height="40" rx="2" transform="matrix(-1 0 0 1 40 0)"/>
</mask>
<rect width="40" height="40" rx="2" transform="matrix(-1 0 0 1 40 0)" stroke="#FC3092" stroke-width="6" mask="url(#path-2-inside-1_602_2353)"/>
</svg>
