<svg  viewBox="0 0 40 40" fill="none" xmlns="http://www.w3.org/2000/svg">
<path d="M18.625 11.375C18.625 10.7188 18.9531 10.1094 19.5625 9.78125C20.125 9.45312 20.8281 9.45312 21.4375 9.78125C22 10.1094 22.375 10.7188 22.375 11.375C22.375 12.0781 22 12.6875 21.4375 13.0156C20.8281 13.3438 20.125 13.3438 19.5625 13.0156C18.9531 12.6875 18.625 12.0781 18.625 11.375ZM16.75 17.375C16.75 16.7656 17.2188 16.25 17.875 16.25H20.5C21.1094 16.25 21.625 16.7656 21.625 17.375V29.75H23.875C24.4844 29.75 25 30.2656 25 30.875C25 31.5312 24.4844 32 23.875 32H17.125C16.4688 32 16 31.5312 16 30.875C16 30.2656 16.4688 29.75 17.125 29.75H19.375V18.5H17.875C17.2188 18.5 16.75 18.0312 16.75 17.375Z" fill="#11152A"/>
<circle cx="20" cy="20" r="18.5" stroke="#30CBFC" stroke-width="3"/>
</svg>
